<?xml version="1.0" standalone="no"?>
<!DOCTYPE svg PUBLIC "-//W3C//DTD SVG 20010904//EN"
 "http://www.w3.org/TR/2001/REC-SVG-20010904/DTD/svg10.dtd">
<svg version="1.0" xmlns="http://www.w3.org/2000/svg"
 width="570.000000pt" height="570.000000pt" viewBox="0 0 570.000000 570.000000"
 preserveAspectRatio="xMidYMid meet">
<metadata>
Created by potrace 1.14, written by Peter Selinger 2001-2017
</metadata>
<g transform="translate(0.000000,570.000000) scale(0.100000,-0.100000)"
fill="#000000" stroke="none">
<path d="M649 5578 c0 -13 -2 -30 -4 -39 -1 -8 -6 -42 -9 -75 -4 -32 -11 -93
-16 -134 -11 -90 -18 -148 -25 -215 -3 -27 -8 -61 -10 -75 -2 -14 -7 -54 -10
-90 -4 -36 -9 -78 -11 -95 -6 -48 -14 -117 -18 -160 -3 -22 -12 -98 -21 -170
-9 -71 -18 -143 -20 -160 -12 -113 -17 -153 -21 -175 -2 -14 -7 -52 -10 -85
-3 -33 -7 -71 -9 -85 -12 -109 -17 -148 -20 -170 -2 -14 -7 -52 -10 -85 -4
-33 -8 -71 -10 -85 -2 -14 -7 -50 -10 -80 -9 -82 -15 -131 -20 -170 -3 -19 -7
-55 -9 -80 -3 -25 -8 -65 -11 -90 -4 -25 -8 -63 -9 -85 -2 -22 -6 -54 -9 -70
-3 -17 -9 -61 -12 -98 -4 -37 -8 -76 -10 -86 -2 -10 -6 -44 -9 -76 -4 -32 -9
-72 -11 -89 -3 -17 -7 -56 -10 -86 -3 -30 -7 -69 -9 -85 -9 -60 -17 -131 -21
-175 -2 -25 -7 -58 -9 -75 -3 -16 -8 -58 -11 -93 -4 -35 -8 -72 -10 -82 -2
-10 -7 -50 -10 -87 -4 -37 -8 -79 -11 -93 -2 -14 -7 -50 -10 -80 -3 -30 -8
-66 -9 -80 -2 -14 -6 -52 -9 -85 -4 -33 -9 -71 -11 -85 -3 -14 -7 -50 -10 -80
-3 -30 -7 -66 -9 -80 -2 -14 -7 -52 -10 -85 -4 -33 -9 -74 -11 -92 -3 -17 -9
-72 -15 -123 -6 -51 -12 -106 -15 -123 -2 -18 -7 -59 -11 -92 -4 -33 -8 -71
-10 -85 -2 -14 -6 -52 -9 -85 -3 -33 -7 -71 -10 -85 -2 -14 -7 -50 -10 -80 -4
-30 -8 -66 -10 -80 -2 -14 -7 -54 -10 -90 -3 -36 -8 -76 -10 -90 -2 -14 -7
-50 -10 -80 -3 -30 -8 -66 -10 -80 -2 -14 -6 -46 -10 -72 l-6 -48 856 0 c470
0 855 2 855 4 0 3 9 49 19 103 11 54 22 115 25 135 3 21 11 59 17 85 6 27 13
59 15 73 3 14 11 60 20 103 8 42 18 90 20 105 5 26 85 436 124 632 10 52 31
158 45 235 15 77 29 149 31 160 6 25 12 53 18 85 2 14 16 86 30 160 14 74 28
146 31 160 3 14 8 39 12 55 3 17 7 37 8 45 6 49 87 448 95 465 7 16 9 11 10
-25 1 -25 3 -54 6 -65 2 -11 6 -45 9 -75 6 -71 15 -147 21 -185 3 -16 7 -55 9
-85 3 -30 6 -66 9 -80 2 -14 7 -54 11 -90 4 -36 8 -72 10 -80 1 -8 5 -49 9
-90 4 -41 11 -79 16 -84 7 -7 927 -12 935 -4 4 4 12 63 20 138 10 103 16 155
20 180 2 14 7 48 9 75 3 28 8 75 12 105 3 30 8 66 9 80 1 14 5 48 9 75 3 28 8
75 11 105 7 71 16 134 19 138 3 2 26 -87 41 -153 1 -5 4 -17 8 -25 4 -12 41
-160 62 -250 2 -8 18 -71 35 -140 18 -69 34 -132 35 -140 2 -8 11 -42 20 -75
9 -33 18 -67 20 -75 2 -8 22 -89 45 -180 23 -91 43 -172 45 -180 2 -8 18 -69
35 -135 17 -66 32 -129 34 -140 2 -11 7 -27 10 -35 3 -8 8 -26 10 -40 6 -27
48 -192 172 -676 42 -165 79 -312 82 -329 2 -16 8 -32 12 -35 12 -7 1648 -6
1655 2 6 5 -4 66 -31 188 -8 38 -13 62 -18 92 -2 15 -12 63 -20 105 -16 81
-21 107 -31 158 -3 17 -10 53 -16 80 -6 28 -12 61 -14 75 -2 14 -10 57 -19 95
-8 39 -17 84 -20 100 -2 17 -19 102 -36 190 -17 88 -34 171 -36 185 -3 14 -11
57 -19 95 -8 39 -16 81 -18 95 -3 14 -23 120 -46 235 -22 116 -42 221 -45 235
-7 39 -35 182 -41 210 -3 14 -17 84 -31 155 -27 140 -49 252 -58 300 -4 17
-18 89 -31 160 -14 72 -27 141 -30 155 -3 14 -12 63 -21 110 -9 47 -18 93 -20
103 -2 10 -5 26 -8 35 -3 9 -8 33 -10 52 -3 19 -7 46 -10 60 -11 51 -78 386
-82 410 -2 14 -7 36 -9 50 -3 14 -7 36 -10 50 -27 144 -108 560 -165 850 -16
80 -32 159 -35 175 -7 40 -10 58 -41 210 -14 72 -28 144 -30 160 -2 17 -9 48
-14 70 -6 22 -11 51 -13 65 -2 14 -9 52 -16 85 l-13 61 -563 -1 c-310 0 -565
-2 -568 -5 -2 -3 -44 -95 -92 -204 -48 -110 -100 -228 -116 -262 -16 -34 -29
-64 -29 -67 0 -3 -16 -40 -36 -84 -39 -86 -38 -82 -119 -268 -31 -71 -65 -148
-75 -170 -25 -58 -136 -309 -192 -435 -11 -25 -26 -59 -33 -75 -7 -17 -23 -51
-34 -78 -11 -26 -22 -47 -25 -47 -7 0 -166 269 -166 280 0 6 -4 10 -9 10 -5 0
-11 8 -15 18 -3 9 -18 38 -33 63 -16 26 -68 114 -116 195 -49 82 -92 156 -98
164 -62 101 -249 424 -249 431 0 5 -3 9 -7 9 -5 0 -13 10 -19 23 -6 12 -55 97
-110 190 -54 92 -107 182 -117 200 -10 17 -30 52 -45 77 l-28 45 -547 3 -547
2 -1 -22z"/>
</g>
</svg>
